<svg id="Capa_1" enable-background="new 0 0 511.936 511.936" height="512" viewBox="0 0 511.936 511.936" width="512" xmlns="http://www.w3.org/2000/svg"><g><g><path d="m338.834 223.687h163.102v-73.448h-163.102v-42.28l-108.252 79.004 108.252 79.003z" fill="#b8ecbc"/><g><g fill="#faf7f5"><path d="m178.42 153.052c5.827-4.595 6.816-13.048 2.208-18.864l-49.809-62.862c-13.994-17.661-39.643-20.663-57.337-6.711l-3.847 3.034 82.729 105.95z"/><path d="m348.121 411.167c17.652-13.92 20.649-39.527 6.689-57.147l-49.735-62.77c-4.669-5.893-13.227-6.895-19.131-2.239l-26.9 21.212 82.729 105.95z"/></g><g><g><path d="m144.165 231.757-25.106-32.153.096.123 33.209-26.129-82.729-105.95-31.337 24.71c-21.381 16.86-36.703 37.879-23.386 84.119 1.853 6.435 6.925 16.323 14.346 28.568l16.742 23.296 136.059 171.718 18.855 21.63c10.229 10.031 18.702 17.237 24.55 20.522 42.023 23.603 66.062 13.585 87.442-3.275l28.867-22.763-82.729-105.95-33.213 26.124-.918-1.175-25.106-32.153" fill="#d1aee5"/></g></g></g></g><g><path d="m172.096 277.529c-4.174 0-7.985-2.689-9.402-6.611-1.378-3.812-.246-8.232 2.809-10.906 3.277-2.868 8.173-3.259 11.87-.97 3.53 2.185 5.359 6.456 4.511 10.519-.956 4.585-5.102 7.968-9.788 7.968z"/><path d="m362.647 347.81-49.734-62.77c-8.075-10.193-22.951-11.934-33.162-3.882l-52.215 41.123-19.847-25.418c-3.399-4.353-9.683-5.125-14.036-1.728-4.353 3.398-5.127 9.684-1.728 14.036l26.024 33.329c1.636 2.095 4.039 3.452 6.678 3.772 2.641.314 5.297-.425 7.386-2.067l25.325-19.92 70.427 90.195-21.052 16.6c-16.975 13.387-36.852 24.596-76.353 2.409-3.316-1.862-9.85-6.616-22.168-18.672l-18.442-21.155-135.767-171.347-16.374-22.786c-8.912-14.738-12.037-22.173-13.087-25.819-12.508-43.431 3.006-60.124 19.969-73.499l23.446-18.488 70.413 90.177-23.984 18.87c-.501.268-.986.581-1.449.941-4.354 3.388-5.141 9.661-1.76 14.02l.096.124c.026.034.053.068.08.102l24.95 31.953c3.399 4.354 9.685 5.126 14.036 1.727 4.353-3.398 5.126-9.684 1.728-14.036l-18.878-24.177 51.443-40.521c4.919-3.879 8.029-9.441 8.757-15.663.729-6.223-1.013-12.354-4.903-17.264l-49.809-62.862c-17.378-21.934-49.393-25.682-71.367-8.353l-35.183 27.745c-21.797 17.187-42.026 41.884-26.804 94.739 2.056 7.139 7.094 17.273 15.403 30.982.135.224.279.441.431.653l16.742 23.297c.091.127.185.252.283.374l136.059 171.717c.097.123.197.243.3.361l18.855 21.63c.171.196.35.386.536.568 11.451 11.229 20.169 18.458 26.654 22.102 19.458 10.929 35.75 15.141 49.697 15.14 20.463 0 35.88-9.065 48.834-19.281l35.215-27.769c10.639-8.39 17.365-20.42 18.939-33.876 1.576-13.456-2.19-26.714-10.604-37.333zm-239.666-270.275 49.809 62.862c.766.967.776 1.992.715 2.518-.062.525-.309 1.521-1.277 2.284l-18.167 14.325-6.653-8.52-63.512-81.34c12.956-7.138 29.608-4.09 39.085 7.871zm230.407 305.284c-.876 7.487-4.389 14.246-9.955 19.231l-70.382-90.138 19.085-15.05c1.571-1.239 3.859-.97 5.101.598l49.735 62.77c5.09 6.425 7.369 14.448 6.416 22.589z"/><path d="m338.835 275.967c-2.082 0-4.151-.649-5.896-1.923l-108.252-79.004c-2.58-1.882-4.105-4.884-4.105-8.077s1.525-6.195 4.105-8.077l108.252-79.004c3.04-2.22 7.07-2.542 10.425-.838 3.356 1.705 5.47 5.15 5.47 8.915v32.279h153.102c5.523 0 10 4.478 10 10v73.449c0 5.523-4.477 10-10 10h-153.102v32.279c0 3.765-2.114 7.21-5.47 8.915-1.43.727-2.982 1.086-4.529 1.086zm-91.29-89.004 81.289 59.326v-22.602c0-5.522 4.477-10 10-10h153.102v-53.449h-153.102c-5.523 0-10-4.478-10-10v-22.602z"/></g></g></svg>